<svg width="37" height="36" viewBox="0 0 37 36" fill="none" xmlns="http://www.w3.org/2000/svg">
<circle cx="18.4858" cy="17.9714" r="17.9714" fill="black"/>
<path d="M22.7084 24.526H14.2634C13.0964 24.526 12.143 23.5727 12.143 22.4057V13.9607C12.143 12.7937 13.0964 11.8403 14.2634 11.8403H22.7084C23.8753 11.8403 24.8287 12.7937 24.8287 13.9607V22.4057C24.8287 23.5779 23.8805 24.526 22.7084 24.526Z" fill="white"/>
<path d="M18.4884 21.4423C17.6184 21.4423 16.8005 21.1037 16.1857 20.489C15.571 19.8742 15.2324 19.0563 15.2324 18.1863C15.2324 17.3162 15.571 16.4983 16.1857 15.8836C16.8005 15.2688 17.6184 14.9302 18.4884 14.9302C19.3585 14.9302 20.1764 15.2688 20.7912 15.8836C21.4059 16.4983 21.7445 17.3162 21.7445 18.1863C21.7445 19.0563 21.4059 19.8742 20.7912 20.489C20.1712 21.1037 19.3585 21.4423 18.4884 21.4423ZM18.4884 15.6231C17.0766 15.6231 15.9253 16.7692 15.9253 18.1863C15.9253 19.5981 17.0714 20.7495 18.4884 20.7495C19.9003 20.7495 21.0516 19.6033 21.0516 18.1863C21.0464 16.7744 19.9003 15.6231 18.4884 15.6231Z" fill="black"/>
<path d="M22.3792 14.8231C22.7245 14.8231 23.0044 14.5432 23.0044 14.1979C23.0044 13.8527 22.7245 13.5728 22.3792 13.5728C22.0339 13.5728 21.754 13.8527 21.754 14.1979C21.754 14.5432 22.0339 14.8231 22.3792 14.8231Z" fill="black"/>
</svg>
