<svg width="37" height="36" viewBox="0 0 37 36" fill="none" xmlns="http://www.w3.org/2000/svg">
<circle cx="18.5143" cy="17.9714" r="17.9714" fill="black"/>
<path d="M14.4563 15.6497H11.3637V25.5116H14.4563V15.6497Z" fill="white"/>
<path d="M22.8216 15.4361C22.7076 15.4218 22.5865 15.4147 22.4653 15.4076C20.7338 15.3363 19.7576 16.3624 19.4155 16.8042C19.3229 16.9253 19.2802 16.9966 19.2802 16.9966V15.6784H16.323V25.5403H19.2802H19.4155C19.4155 24.5356 19.4155 23.538 19.4155 22.5333C19.4155 21.9917 19.4155 21.4501 19.4155 20.9086C19.4155 20.2388 19.3657 19.5262 19.7006 18.9134C19.9856 18.4004 20.4986 18.1438 21.0758 18.1438C22.786 18.1438 22.8216 19.6901 22.8216 19.8326C22.8216 19.8397 22.8216 19.8469 22.8216 19.8469V25.583H25.9141V19.1486C25.9141 16.9467 24.7954 15.6499 22.8216 15.4361Z" fill="white"/>
<path d="M12.9099 14.3745C13.9016 14.3745 14.7055 13.5706 14.7055 12.5789C14.7055 11.5872 13.9016 10.7832 12.9099 10.7832C11.9181 10.7832 11.1142 11.5872 11.1142 12.5789C11.1142 13.5706 11.9181 14.3745 12.9099 14.3745Z" fill="white"/>
</svg>
