<svg width="36" height="36" viewBox="0 0 36 36" fill="none" xmlns="http://www.w3.org/2000/svg">
<circle cx="18.0287" cy="17.9714" r="17.9714" fill="black"/>
<path d="M21.1133 11.3462L20.7562 10.7832H18.5954V15.8539L18.588 20.8069C18.5917 20.8437 18.5954 20.8841 18.5954 20.9209C18.5954 22.161 17.5868 23.173 16.3425 23.173C15.0983 23.173 14.0897 22.1647 14.0897 20.9209C14.0897 19.6809 15.0983 18.6689 16.3425 18.6689C16.6002 18.6689 16.8505 18.7168 17.0824 18.7977V16.3249C16.8432 16.2844 16.5965 16.2624 16.3425 16.2624C13.7768 16.266 11.6859 18.3562 11.6859 20.9246C11.6859 23.4931 13.7768 25.5832 16.3462 25.5832C18.9157 25.5832 21.0066 23.4931 21.0066 20.9246V15.0333C21.9379 15.9643 23.1416 16.8732 24.4742 17.1639V14.6359C23.0275 13.9956 21.5882 12.1042 21.1133 11.3462Z" fill="white"/>
</svg>
