<svg width="156" height="57" viewBox="0 0 156 57" fill="none" xmlns="http://www.w3.org/2000/svg">
<g clip-path="url(#clip0_179_4)">
<path d="M17.1334 7.02438H0V47.9993L17.1334 7.02438Z" fill="#868686"/>
<path d="M29.1884 7.02438H46.2994V47.9993L29.1884 7.02438Z" fill="#868686"/>
<path d="M23.161 22.1262L34.0661 47.9992H26.9114L23.6521 39.7618H15.6714L23.161 22.1262Z" fill="#868686"/>
<path d="M74.2508 33.0818L76.2711 38.8748C76.3381 39.0199 76.4385 39.0868 76.6171 39.0868H80.5014C80.7135 39.0868 80.747 38.9864 80.7135 38.7743L72.6882 16.4842C72.6547 16.3056 72.6212 16.2721 72.4426 16.2721H67.6207C67.4868 16.2721 67.4086 16.3726 67.4086 16.5177C67.3417 17.6897 67.2412 18.0469 67.0961 18.3929L59.9414 38.7408C59.9079 38.9864 59.9861 39.0868 60.187 39.0868H63.6583C63.8704 39.0868 63.9708 39.0199 64.0489 38.8078L65.9576 33.0818H74.2508ZM67.0626 29.2979C68.1118 26.128 69.4959 22.0651 70.054 19.7434H70.0875C70.7795 22.1767 72.4091 26.9986 73.1458 29.2979H67.0626Z" fill="#868686"/>
<path d="M91.0308 39.4329C93.118 39.4329 95.3392 39.0534 97.5939 38.0823C97.7725 38.0154 97.806 37.9372 97.806 37.7698C97.739 37.1447 97.6609 36.2406 97.6609 35.5486V14.5644C97.6609 14.4305 97.6609 14.3635 97.4935 14.3635H93.7096C93.5645 14.3635 93.4976 14.4305 93.4976 14.6091V21.7191C92.906 21.6522 92.493 21.6187 92.0019 21.6187C85.8964 21.6187 82.146 25.6481 82.146 30.6821C82.146 36.5197 85.9968 39.4329 91.0308 39.4329ZM93.4976 35.5486C92.8725 35.7495 92.1805 35.8277 91.4773 35.8277C88.7091 35.8277 86.4433 34.265 86.4433 30.47C86.4433 27.1103 88.7761 25.1235 91.8679 25.1235C92.493 25.1235 93.0399 25.1905 93.4976 25.3691V35.5486Z" fill="#868686"/>
<path d="M109.877 21.6185C104.664 21.6185 101.439 25.6144 101.439 30.5479C101.439 34.9568 104.006 39.4327 109.799 39.4327C114.699 39.4327 118.137 35.8274 118.137 30.4363C118.137 25.6814 115.224 21.6185 109.877 21.6185ZM109.665 25.1233C112.612 25.1233 113.862 27.657 113.862 30.5479C113.862 34.1197 112.02 35.8944 109.877 35.8944C107.232 35.8944 105.669 33.6732 105.669 30.4698C105.669 27.177 107.332 25.1233 109.665 25.1233Z" fill="#868686"/>
<path d="M122.049 14.3635C121.904 14.3635 121.803 14.4305 121.803 14.6091V38.3614C121.803 38.4618 121.904 38.6404 122.049 38.6739C123.712 39.1874 125.453 39.4329 127.25 39.4329C132.396 39.4329 137.396 36.2406 137.396 29.8114C137.396 25.157 134.204 21.6187 129.203 21.6187C128.054 21.6187 126.982 21.7973 126.045 22.1098L126 14.6426C126 14.397 125.933 14.3635 125.688 14.3635H122.049ZM133.121 30.2356C133.121 34.0864 130.487 35.8946 127.641 35.8946C127.049 35.8946 126.525 35.8611 126.045 35.716V25.5811C126.592 25.3691 127.25 25.1905 128.467 25.1905C131.213 25.1905 133.121 26.9317 133.121 30.2356Z" fill="#868686"/>
<path d="M151.518 31.4855C153.214 31.4855 154.609 31.452 155.089 31.3404C155.268 31.3069 155.335 31.2399 155.368 31.0948C155.469 30.7153 155.514 29.9228 155.514 28.9518C155.514 25.6479 153.527 21.6185 148.392 21.6185C143.146 21.6185 140.233 25.8934 140.233 30.7153C140.233 34.9903 142.488 39.4327 148.805 39.4327C151.172 39.4327 152.701 39.0532 154.018 38.4281C154.152 38.3612 154.219 38.2495 154.219 38.0486V35.1577C154.219 34.9903 154.118 34.9568 154.018 35.0238C152.701 35.5819 151.272 35.8609 149.709 35.8609C146.171 35.8609 144.564 33.9076 144.463 31.4855H151.518ZM144.463 28.4941C144.742 26.7975 145.814 24.9558 148.214 24.9558C150.859 24.9558 151.551 27.177 151.551 28.1816C151.551 28.2151 151.551 28.3602 151.551 28.4607C151.406 28.4941 150.959 28.4941 149.642 28.4941H144.463Z" fill="#868686"/>
</g>
<defs>
<clipPath id="clip0_179_4">
<rect width="155.705" height="56.1942" fill="white"/>
</clipPath>
</defs>
</svg>
