<svg width="150" height="57" viewBox="0 0 150 57" fill="none" xmlns="http://www.w3.org/2000/svg">
<g clip-path="url(#clip0_179_24)">
<path fill-rule="evenodd" clip-rule="evenodd" d="M144.816 37.44C144.905 38.4579 145.72 39.7537 147.131 39.7537H147.956C148.276 39.7537 148.539 39.4915 148.539 39.1713V21.0185H148.535C148.519 20.7127 148.266 20.4678 147.956 20.4678H145.399C145.089 20.4678 144.836 20.7127 144.82 21.0185H144.816V22.4935C143.249 20.562 140.779 19.7603 138.301 19.7603C132.67 19.7603 128.105 24.3289 128.105 29.965C128.105 35.6014 132.67 40.1701 138.301 40.1701C140.779 40.1701 143.479 39.2087 144.816 37.4377V37.44ZM138.311 36.5986C134.729 36.5986 131.826 33.6289 131.826 29.965C131.826 26.3017 134.729 23.3319 138.311 23.3319C141.893 23.3319 144.796 26.3017 144.796 29.965C144.796 33.6289 141.893 36.5986 138.311 36.5986Z" fill="#868686"/>
<path fill-rule="evenodd" clip-rule="evenodd" d="M124.87 28.671C124.87 23.376 121.533 19.804 116.21 19.804C113.669 19.804 111.587 21.2744 110.851 22.5374C110.692 21.5498 110.168 20.5117 108.543 20.5117H107.715C107.395 20.5117 107.133 20.7741 107.133 21.0943V37.4854C107.133 37.4859 107.133 37.4871 107.133 37.4879V39.2486H107.136C107.153 39.5539 107.406 39.7991 107.715 39.7991H110.273C110.312 39.7991 110.351 39.7945 110.388 39.7873C110.405 39.784 110.42 39.7773 110.437 39.7727C110.456 39.7668 110.476 39.7623 110.494 39.7548C110.516 39.7454 110.537 39.7327 110.558 39.7209C110.569 39.7145 110.579 39.7101 110.589 39.7035C110.615 39.687 110.638 39.6672 110.661 39.6469C110.665 39.6432 110.669 39.6407 110.673 39.6372C110.698 39.6126 110.722 39.5855 110.742 39.5573C110.806 39.4693 110.845 39.3629 110.852 39.2486H110.855V28.5253C110.855 25.6816 113.159 23.376 116 23.376C118.842 23.376 121.146 25.6816 121.146 28.5253L121.148 37.4886L121.149 37.4854C121.149 37.4934 121.15 37.5015 121.15 37.51V39.2486H121.154C121.17 39.5539 121.423 39.7991 121.732 39.7991H124.29C124.329 39.7991 124.368 39.7945 124.405 39.7873C124.42 39.7845 124.434 39.7784 124.449 39.7743C124.469 39.7681 124.491 39.7629 124.511 39.7548C124.532 39.7462 124.551 39.7341 124.571 39.7229C124.583 39.7161 124.596 39.7112 124.607 39.7035C124.631 39.6879 124.652 39.6692 124.674 39.6507C124.679 39.6456 124.685 39.6419 124.69 39.6368C124.715 39.6134 124.736 39.5881 124.756 39.5617C124.757 39.5597 124.759 39.5581 124.76 39.5561C124.823 39.4689 124.862 39.3637 124.869 39.2501C124.869 39.2493 124.869 39.2486 124.869 39.2486H124.872L124.87 28.671Z" fill="#868686"/>
<path fill-rule="evenodd" clip-rule="evenodd" d="M98.2349 37.4399C98.3243 38.4579 99.1387 39.7537 100.549 39.7537H101.375C101.695 39.7537 101.957 39.4914 101.957 39.1712V21.0185H101.953C101.937 20.7127 101.684 20.4678 101.375 20.4678H98.8171C98.5078 20.4678 98.2552 20.7127 98.2379 21.0185H98.2349V22.4935C96.6678 20.562 94.1972 19.7603 91.7197 19.7603C86.0883 19.7603 81.5233 24.3289 81.5233 29.965C81.5233 35.6014 86.0883 40.1702 91.7197 40.1702C94.1972 40.1702 96.8973 39.2087 98.2347 37.4376L98.2349 37.4399ZM91.7296 36.5986C88.1483 36.5986 85.2447 33.629 85.2447 29.965C85.2447 26.3017 88.1483 23.3319 91.7296 23.3319C95.3114 23.3319 98.2145 26.3017 98.2145 29.965C98.2145 33.629 95.3114 36.5986 91.7296 36.5986Z" fill="#868686"/>
<path fill-rule="evenodd" clip-rule="evenodd" d="M66.3986 34.8401C68.106 36.0238 69.9697 36.5988 71.7606 36.5988C73.4668 36.5988 75.2307 35.7136 75.2307 34.1728C75.2307 32.1158 71.3872 31.7957 68.9723 30.9743C66.5569 30.153 64.4767 28.455 64.4767 25.7053C64.4767 21.4977 68.2228 19.76 71.7193 19.76C73.9346 19.76 76.2202 20.4911 77.7021 21.5383C78.2125 21.9253 77.9017 22.3696 77.9017 22.3696L76.4871 24.3915C76.3281 24.6193 76.0501 24.816 75.6511 24.5695C75.252 24.3232 73.8523 23.3317 71.7193 23.3317C69.5859 23.3317 68.3009 24.3176 68.3009 25.5397C68.3009 27.0051 69.971 27.466 71.9272 27.9654C75.3362 28.885 79.055 29.9904 79.055 34.1728C79.055 37.88 75.5901 40.171 71.7606 40.171C68.8587 40.171 66.388 39.3431 64.3158 37.8213C63.8841 37.3889 64.1856 36.9874 64.1856 36.9874L65.5932 34.9758C65.8797 34.5997 66.2407 34.7309 66.3986 34.8401Z" fill="#868686"/>
<path fill-rule="evenodd" clip-rule="evenodd" d="M56.5662 37.4399C56.6556 38.4579 57.4699 39.7537 58.8805 39.7537H59.7059C60.0259 39.7537 60.2881 39.4914 60.2881 39.1712V21.0185H60.2845C60.2677 20.7127 60.0151 20.4678 59.7059 20.4678H57.1483C56.839 20.4678 56.5864 20.7127 56.5692 21.0185H56.5662V22.4935C54.9991 20.562 52.5285 19.7603 50.051 19.7603C44.4196 19.7603 39.8544 24.3289 39.8544 29.965C39.8544 35.6014 44.4196 40.1702 50.051 40.1702C52.5285 40.1702 55.2285 39.2087 56.5658 37.4376L56.5662 37.4399ZM50.061 36.5986C46.4794 36.5986 43.5759 33.629 43.5759 29.965C43.5759 26.3017 46.4794 23.3319 50.061 23.3319C53.6424 23.3319 56.5457 26.3017 56.5457 29.965C56.5457 33.629 53.6424 36.5986 50.061 36.5986Z" fill="#868686"/>
<path fill-rule="evenodd" clip-rule="evenodd" d="M25.5589 30.6587C21.7693 30.6587 18.697 33.7309 18.697 37.521C18.697 41.3107 21.7693 44.3829 25.5589 44.3829C29.3487 44.3829 32.4209 41.3107 32.4209 37.521C32.4209 33.7309 29.3487 30.6587 25.5589 30.6587ZM7.73109 30.6594C3.94137 30.6594 0.869141 33.7309 0.869141 37.521C0.869141 41.3107 3.94137 44.3829 7.73109 44.3829C11.521 44.3829 14.5934 41.3107 14.5934 37.521C14.5934 33.7309 11.521 30.6594 7.73109 30.6594ZM23.5069 22.0811C23.5069 25.8711 20.4348 28.9436 16.645 28.9436C12.8552 28.9436 9.78311 25.8711 9.78311 22.0811C9.78311 18.2918 12.8552 15.2193 16.645 15.2193C20.4348 15.2193 23.5069 18.2918 23.5069 22.0811Z" fill="#868686"/>
</g>
<defs>
<clipPath id="clip0_179_24">
<rect width="148.681" height="56.1942" fill="white" transform="translate(0.869385)"/>
</clipPath>
</defs>
</svg>
