<svg width="159" height="57" viewBox="0 0 159 57" fill="none" xmlns="http://www.w3.org/2000/svg">
<g clip-path="url(#clip0_179_21)">
<path fill-rule="evenodd" clip-rule="evenodd" d="M21.2289 5.85327C9.95483 5.85327 0.823364 14.9847 0.823364 26.2588C0.823364 35.2882 6.66444 42.9148 14.7756 45.6185C15.7959 45.7971 16.1785 45.1849 16.1785 44.6493C16.1785 44.1646 16.153 42.5577 16.153 40.8487C11.0261 41.7925 9.69977 39.5989 9.29166 38.4511C9.06209 37.8644 8.06732 36.0534 7.20009 35.5688C6.4859 35.1862 5.46562 34.2425 7.17458 34.217C8.78152 34.1914 9.92933 35.6964 10.3119 36.3085C12.1484 39.3949 15.0817 38.5276 16.255 37.992C16.4336 36.6656 16.9692 35.7729 17.5559 35.2627C13.0157 34.7526 8.27138 32.9926 8.27138 25.1875C8.27138 22.9684 9.06209 21.1319 10.3629 19.7035C10.1589 19.1934 9.4447 17.1018 10.567 14.2961C10.567 14.2961 12.276 13.7604 16.1785 16.3876C17.811 15.9285 19.5454 15.6989 21.2799 15.6989C23.0144 15.6989 24.7488 15.9285 26.3813 16.3876C30.2838 13.7349 31.9928 14.2961 31.9928 14.2961C33.1151 17.1018 32.4009 19.1934 32.1969 19.7035C33.4977 21.1319 34.2884 22.9429 34.2884 25.1875C34.2884 33.0181 29.5186 34.7526 24.9784 35.2627C25.7181 35.9004 26.3558 37.1247 26.3558 39.0378C26.3558 41.767 26.3303 43.9606 26.3303 44.6493C26.3303 45.1849 26.7129 45.8226 27.7331 45.6185C31.784 44.251 35.304 41.6476 37.7978 38.1747C40.2915 34.7018 41.6333 30.5343 41.6344 26.2588C41.6344 14.9847 32.5029 5.85327 21.2289 5.85327Z" fill="#868686"/>
<path d="M95.9505 36.108H95.9029C95.9243 36.108 95.9386 36.1318 95.96 36.1342H95.9743L95.9505 36.1104V36.108ZM95.96 36.1342C95.7386 36.1366 95.1815 36.2532 94.5935 36.2532C92.7366 36.2532 92.0939 35.3962 92.0939 34.2773V26.8235H95.8791C96.0933 26.8235 96.26 26.6331 96.26 26.3712V22.3241C96.26 22.1098 96.0695 21.9194 95.8791 21.9194H92.0939V16.8962C92.0939 16.7058 91.9748 16.5867 91.7606 16.5867H86.6184C86.4041 16.5867 86.2851 16.7058 86.2851 16.8962V22.0622C86.2851 22.0622 83.6902 22.705 83.5235 22.7288C83.3331 22.7764 83.2141 22.9431 83.2141 23.1335V26.3712C83.2141 26.6331 83.4045 26.8235 83.6188 26.8235H86.2613V34.632C86.2613 40.4408 90.3084 41.036 93.0699 41.036C94.3317 41.036 95.8553 40.6313 96.0933 40.5122C96.2362 40.4646 96.3076 40.298 96.3076 40.1313V36.5604C96.3109 36.4591 96.2775 36.36 96.2137 36.2813C96.1499 36.2026 96.0598 36.1495 95.96 36.1318V36.1342ZM152.372 30.8944C152.372 26.5855 150.634 26.0141 148.801 26.2045C147.372 26.2998 146.23 27.014 146.23 27.014V35.3938C146.23 35.3938 147.396 36.2033 149.134 36.2509C151.586 36.3223 152.372 35.4414 152.372 30.8944ZM158.157 30.5135C158.157 38.6791 155.514 41.0122 150.896 41.0122C146.992 41.0122 144.897 39.0362 144.897 39.0362C144.897 39.0362 144.801 40.1313 144.682 40.2742C144.611 40.417 144.492 40.4646 144.349 40.4646H140.826C140.588 40.4646 140.373 40.2742 140.373 40.0599L140.421 13.6109C140.421 13.3967 140.611 13.2062 140.826 13.2062H145.896C146.111 13.2062 146.301 13.3967 146.301 13.6109V22.586C146.301 22.586 148.253 21.3242 151.11 21.3242L151.086 21.2766C153.943 21.2766 158.157 22.3479 158.157 30.5135ZM137.398 21.9194H132.398C132.136 21.9194 131.993 22.1098 131.993 22.3717V35.3224C131.993 35.3224 130.684 36.2509 128.899 36.2509C127.113 36.2509 126.589 35.4415 126.589 33.656V22.3479C126.589 22.1336 126.399 21.9432 126.185 21.9432H121.09C120.876 21.9432 120.685 22.1336 120.685 22.3479V34.513C120.685 39.7504 123.614 41.0598 127.637 41.0598C130.946 41.0598 133.636 39.2267 133.636 39.2267C133.636 39.2267 133.755 40.1551 133.827 40.298C133.874 40.417 134.041 40.5122 134.207 40.5122H137.398C137.659 40.5122 137.802 40.3218 137.802 40.1075L137.85 22.3241C137.85 22.1098 137.659 21.9194 137.398 21.9194ZM80.9762 21.8956H75.9055C75.6912 21.8956 75.5008 22.1098 75.5008 22.3717V39.8456C75.5008 40.3218 75.8103 40.4884 76.215 40.4884H80.7858C81.2619 40.4884 81.381 40.2742 81.381 39.8456V22.3003C81.381 22.086 81.1905 21.8956 80.9762 21.8956ZM78.4766 13.849C76.6435 13.849 75.1913 15.3012 75.1913 17.1343C75.1913 18.9674 76.6435 20.4196 78.4766 20.4196C80.2621 20.4196 81.7142 18.9674 81.7142 17.1343C81.7142 15.3012 80.2621 13.849 78.4766 13.849ZM117.733 13.2538H112.71C112.496 13.2538 112.306 13.4443 112.306 13.6586V23.3954H104.426V13.6586C104.426 13.4443 104.235 13.2538 104.021 13.2538H98.9501C98.7359 13.2538 98.5454 13.4443 98.5454 13.6586V40.1075C98.5454 40.3218 98.7597 40.5122 98.9501 40.5122H104.021C104.235 40.5122 104.426 40.3218 104.426 40.1075V28.7994H112.306L112.258 40.1075C112.258 40.3218 112.448 40.5122 112.663 40.5122H117.733C117.948 40.5122 118.138 40.3218 118.138 40.1075V13.6586C118.138 13.4443 117.948 13.2538 117.733 13.2538ZM72.8106 24.9666V38.6315C72.8106 38.7267 72.7868 38.8934 72.6678 38.941C72.6678 38.941 69.692 41.0598 64.7879 41.0598C58.8601 41.0598 51.8372 39.2029 51.8372 26.9664C51.8372 14.7298 57.9792 12.2064 63.9785 12.2302C69.1683 12.2302 71.2632 13.3967 71.5965 13.6109C71.6917 13.73 71.7393 13.8252 71.7393 13.9442L70.7395 18.1818C70.7395 18.396 70.5252 18.6579 70.2634 18.5865C69.4063 18.3246 68.1208 17.8009 65.0974 17.8009C61.5978 17.8009 57.8364 18.8007 57.8364 26.6807C57.8364 34.5606 61.4074 35.4891 63.9785 35.4891C66.1686 35.4891 66.9543 35.2272 66.9543 35.2272V29.7517H63.4547C63.1928 29.7517 63.0024 29.5613 63.0024 29.347V24.9666C63.0024 24.7524 63.1928 24.5619 63.4547 24.5619H72.3583C72.6202 24.5619 72.8106 24.7524 72.8106 24.9666Z" fill="#868686"/>
</g>
<defs>
<clipPath id="clip0_179_21">
<rect width="158.046" height="56.1942" fill="white" transform="translate(0.823242)"/>
</clipPath>
</defs>
</svg>
