<svg width="174" height="57" viewBox="0 0 174 57" fill="none" xmlns="http://www.w3.org/2000/svg">
<path d="M103.07 17.5608C99.5221 17.5608 96.054 20.7735 95.6552 25.4154V17.9435H90.5604V40.4733H95.7176V29.568C95.7176 26.5131 97.8829 22.2039 103.07 22.2039V17.5608Z" fill="#868686"/>
<path d="M157.166 36.8665V21.4309H160.153C164.137 21.4309 167.374 23.9205 167.374 29.0243C167.374 34.1279 164.137 36.8665 160.153 36.8665H157.166ZM152.062 40.4765H160.776C166.129 40.4765 172.726 36.991 172.726 29.0243C172.726 21.1819 166.129 17.9454 160.776 17.9454H152.062V40.4765Z" fill="#868686"/>
<path d="M132.534 29.2735C132.534 25.1656 134.65 21.8046 138.135 21.8046C141.496 21.8046 143.363 25.1656 143.363 29.2735C143.363 33.3813 141.496 36.7423 138.135 36.7423C134.65 36.7423 132.534 33.3813 132.534 29.2735ZM127.306 29.5224C127.306 36.2444 130.791 40.9747 136.268 40.9747C140.251 40.9747 142.616 38.3606 143.861 34.1282V40.4768H148.964V17.9457H143.861V23.9208C142.741 19.9374 140.376 17.5722 136.642 17.5722C131.04 17.5722 127.306 22.676 127.306 29.5224Z" fill="#868686"/>
<path d="M11.0844 40.9747C4.73589 40.9747 1.00146 35.871 1.00146 29.5224C1.00146 22.9249 5.10933 17.5722 12.9516 17.5722C21.0429 17.5722 23.7815 23.0494 23.9059 26.1614H18.0554C17.9309 24.4187 16.4371 21.8046 12.8271 21.8046C8.96823 21.8046 6.47863 25.1656 6.47863 29.2735C6.47863 33.3813 8.96823 36.7423 12.8271 36.7423C16.3126 36.7423 17.8064 34.0038 18.4288 31.2651H12.8271V29.0245H24.5813V40.4768H19.4246V33.2568C19.0512 35.871 17.4329 40.9747 11.0844 40.9747Z" fill="#868686"/>
<path d="M35.0366 40.9744C30.1819 40.9744 27.1943 37.7379 27.1943 31.2649V17.9454H32.4225V31.2649C32.4225 34.6258 34.0408 36.2441 36.7793 36.2441C42.132 36.2441 44.1237 29.6466 44.1237 25.0408V17.9454H49.3519V40.4765H44.2481V32.1362C43.2523 36.742 40.5138 40.9744 35.0366 40.9744Z" fill="#868686"/>
<path d="M80.5941 17.5604C76.1335 17.5604 73.3196 21.8693 72.4011 25.8534C72.2441 20.5142 69.6185 17.5604 65.4174 17.5604C61.7879 17.5604 58.4205 20.7972 57.546 25.9179V17.9437H52.4493V40.4753H57.6113V32.3978C57.6113 30.3953 58.4461 22.1774 63.6425 22.1774C67.0087 22.1774 67.3596 25.2138 67.3596 29.3644V40.4753H72.5192V32.3978C72.5192 30.3953 73.3886 22.1774 78.5849 22.1774C81.9484 22.1774 82.2958 25.2138 82.2958 29.3644V40.4753H87.4623V27.148C87.4857 20.7543 85.2284 17.5604 80.5941 17.5604Z" fill="#868686"/>
<path d="M114.144 17.5604C107.462 17.5604 102.934 22.8002 102.934 29.2675C102.934 36.3936 107.24 40.9745 114.144 40.9745C120.827 40.9745 125.435 35.7349 125.435 29.2675C125.435 22.1415 121.045 17.5604 114.144 17.5604ZM114.144 36.9864C110.254 36.9864 107.734 33.6929 107.734 29.2675C107.734 24.8422 110.263 21.5486 114.144 21.5486C118.025 21.5486 120.453 24.8422 120.453 29.2675C120.453 33.6929 118.023 36.9864 114.144 36.9864Z" fill="#868686"/>
</svg>
