<svg width="134" height="57" viewBox="0 0 134 57" fill="none" xmlns="http://www.w3.org/2000/svg">
<g clip-path="url(#clip0_179_17)">
<path d="M14.7716 15.3436V25.9828H5.00067V15.3436H0.361816V40.7403H5.00067V30.4466H14.7716V40.7403H19.4104V15.3436H14.7716Z" fill="#868686"/>
<path d="M34.2565 32.5302C34.2565 33.5481 33.8522 34.5242 33.1325 35.2439C32.4128 35.9636 31.4367 36.3679 30.4189 36.3679C29.401 36.3679 28.4249 35.9636 27.7052 35.2439C26.9855 34.5242 26.5812 33.5481 26.5812 32.5302V21.6525H22.181V32.5302C22.181 34.7129 23.0481 36.8063 24.5915 38.3497C26.1349 39.8931 28.2282 40.7602 30.4109 40.7602C32.5936 40.7602 34.6869 39.8931 36.2303 38.3497C37.7738 36.8063 38.6408 34.7129 38.6408 32.5302V21.6525H34.2565V32.5302Z" fill="#868686"/>
<path d="M66.8591 22.7735C66.8591 20.5439 68.3342 19.837 69.9501 19.837C71.2525 19.837 72.973 20.828 74.0981 22.0303L76.98 18.6347C75.5413 16.6892 72.623 15.3437 70.2343 15.3437C65.4613 15.3437 62.0089 18.1392 62.0089 22.7735C62.0089 31.3717 72.5184 28.6443 72.5184 33.4559C72.5184 34.94 71.0775 36.2514 69.4274 36.2514C66.825 36.2514 65.9818 34.9786 64.7863 33.6331L61.5884 36.9583C63.6339 39.4698 66.1568 40.7448 69.1797 40.7448C73.714 40.7448 77.3619 37.9151 77.3619 33.4922C77.3619 23.9463 66.8523 26.9124 66.8523 22.7735" fill="#868686"/>
<path d="M131.876 36.683C129.276 36.683 128.537 35.5579 128.537 33.8351V26.2098H132.578V22.3459H128.537V17.248L124.076 19.2503V34.7829C124.076 38.7558 126.817 40.7582 130.576 40.7582C131.165 40.7689 131.755 40.7217 132.335 40.6172L133.424 36.6102C132.933 36.6443 132.369 36.6784 131.876 36.6784" fill="#868686"/>
<path d="M51.0061 21.7807C48.8265 21.7807 47.306 22.4126 45.8354 23.8558V15.4963H41.4284V30.9902C41.4284 36.7905 45.6218 40.7634 50.3334 40.7634C55.5609 40.7634 60.1588 36.72 60.1588 31.2743C60.1588 25.8968 55.9268 21.783 51.0061 21.783V21.7807ZM50.9789 36.3291C49.9899 36.3291 49.0232 36.0359 48.2009 35.4864C47.3786 34.937 46.7377 34.1561 46.3592 33.2424C45.9808 32.3287 45.8818 31.3233 46.0747 30.3534C46.2676 29.3834 46.7439 28.4925 47.4432 27.7932C48.1425 27.0939 49.0334 26.6177 50.0034 26.4247C50.9733 26.2318 51.9787 26.3308 52.8924 26.7093C53.806 27.0877 54.587 27.7286 55.1364 28.5509C55.6858 29.3732 55.9791 30.3399 55.9791 31.3289C55.9791 32.655 55.4523 33.9269 54.5146 34.8646C53.5768 35.8023 52.305 36.3291 50.9789 36.3291Z" fill="#868686"/>
<path d="M98.8581 31.0415C98.8581 25.5867 94.2693 21.5524 89.0327 21.5524C84.3211 21.5524 80.1277 25.5254 80.1277 31.3256V46.8286H84.5347V38.4578C86.003 39.8988 87.5258 40.5329 89.7032 40.5329C94.6238 40.5329 98.8559 36.4213 98.8559 31.0415H98.8581ZM94.6852 30.987C94.6852 31.9759 94.3919 32.9427 93.8425 33.765C93.2931 34.5872 92.5121 35.2281 91.5985 35.6066C90.6848 35.985 89.6794 36.0841 88.7095 35.8911C87.7395 35.6982 86.8486 35.222 86.1493 34.5227C85.45 33.8234 84.9738 32.9324 84.7808 31.9625C84.5879 30.9925 84.6869 29.9871 85.0654 29.0735C85.4438 28.1598 86.0847 27.3789 86.907 26.8294C87.7293 26.28 88.696 25.9867 89.685 25.9867C91.0111 25.9867 92.2829 26.5136 93.2207 27.4513C94.1584 28.389 94.6852 29.6608 94.6852 30.987Z" fill="#868686"/>
<path d="M113.051 21.482V17.1C113.63 16.8295 114.12 16.4001 114.465 15.8617C114.809 15.3233 114.993 14.6981 114.996 14.0589V13.9567C114.994 13.0635 114.638 12.2075 114.006 11.5759C113.375 10.9443 112.519 10.5884 111.626 10.586H111.523C110.63 10.5884 109.774 10.9443 109.143 11.5759C108.511 12.2075 108.155 13.0635 108.153 13.9567V14.0589C108.156 14.6981 108.34 15.3233 108.684 15.8617C109.029 16.4001 109.519 16.8295 110.098 17.1V21.482C108.433 21.7366 106.865 22.4266 105.553 23.4821L93.5203 14.1203C93.6059 13.8115 93.6518 13.493 93.6567 13.1725C93.6575 12.4205 93.4354 11.685 93.0183 11.0592C92.6013 10.4334 92.008 9.94536 91.3135 9.65673C90.6191 9.3681 89.8546 9.29188 89.1168 9.43772C88.3791 9.58356 87.7011 9.94489 87.1687 10.476C86.6363 11.0072 86.2733 11.6843 86.1257 12.4217C85.9781 13.1591 86.0525 13.9238 86.3395 14.6189C86.6264 15.3141 87.1131 15.9085 87.7379 16.3271C88.3627 16.7456 89.0976 16.9695 89.8497 16.9704C90.5102 16.968 91.1585 16.7916 91.7293 16.459L103.559 25.6686C102.494 27.2761 101.938 29.1677 101.964 31.0962C101.991 33.0246 102.598 34.9003 103.707 36.4781L100.107 40.0783C99.8179 39.9863 99.517 39.9373 99.2137 39.9329C98.5956 39.9329 97.9914 40.1161 97.4775 40.4595C96.9636 40.8029 96.563 41.291 96.3265 41.8621C96.0899 42.4331 96.028 43.0615 96.1486 43.6677C96.2692 44.2739 96.5669 44.8307 97.0039 45.2678C97.441 45.7049 97.9978 46.0025 98.604 46.1231C99.2103 46.2437 99.8386 46.1818 100.41 45.9453C100.981 45.7087 101.469 45.3082 101.812 44.7942C102.156 44.2803 102.339 43.6761 102.339 43.058C102.335 42.7547 102.286 42.4537 102.193 42.1648L105.755 38.6032C106.918 39.4913 108.268 40.1019 109.702 40.3886C111.137 40.6752 112.618 40.6303 114.032 40.2573C115.447 39.8843 116.758 39.1929 117.864 38.2361C118.971 37.2793 119.844 36.0823 120.418 34.7365C120.991 33.3906 121.25 31.9315 121.173 30.4706C121.097 29.0096 120.688 27.5855 119.977 26.3068C119.266 25.0281 118.273 23.9287 117.073 23.0925C115.872 22.2563 114.496 21.7055 113.051 21.482ZM111.576 35.8963C110.601 35.8963 109.648 35.6073 108.838 35.0659C108.028 34.5244 107.396 33.7549 107.023 32.8545C106.65 31.9541 106.553 30.9633 106.743 30.0075C106.933 29.0517 107.402 28.1737 108.091 27.4845C108.781 26.7954 109.659 26.3261 110.614 26.136C111.57 25.9459 112.561 26.0434 113.461 26.4164C114.362 26.7893 115.131 27.4209 115.673 28.2312C116.214 29.0416 116.503 29.9942 116.503 30.9688C116.503 32.2757 115.984 33.529 115.06 34.4531C114.136 35.3772 112.883 35.8963 111.576 35.8963Z" fill="#868686"/>
</g>
<defs>
<clipPath id="clip0_179_17">
<rect width="133.461" height="56.1942" fill="white" transform="translate(0.361816)"/>
</clipPath>
</defs>
</svg>
