<svg width="95" height="57" viewBox="0 0 95 57" fill="none" xmlns="http://www.w3.org/2000/svg">
<g clip-path="url(#clip0_179_14)">
<path fill-rule="evenodd" clip-rule="evenodd" d="M93.5492 30.2242C93.5492 23.6219 90.3512 18.4123 84.239 18.4123C78.1009 18.4123 74.3872 23.6219 74.3872 30.1726C74.3872 37.9354 78.7715 41.8555 85.0642 41.8555C88.1333 41.8555 90.4544 41.1591 92.2081 40.1791V35.0211C90.4544 35.898 88.4427 36.4396 85.8895 36.4396C83.3879 36.4396 81.17 35.5627 80.8863 32.5195H93.4976C93.4976 32.1842 93.5492 30.8431 93.5492 30.2242ZM80.8089 27.7741C80.8089 24.8598 82.5884 23.6477 84.2132 23.6477C85.7864 23.6477 87.4627 24.8598 87.4627 27.7741H80.8089Z" fill="#868686"/>
<path fill-rule="evenodd" clip-rule="evenodd" d="M64.432 18.4123C61.9046 18.4123 60.2798 19.5987 59.3772 20.4239L59.0419 18.8249H53.3681V48.8961L59.8156 47.5293L59.8414 40.2307C60.7698 40.9012 62.1367 41.8554 64.4062 41.8554C69.0227 41.8554 73.2264 38.1417 73.2264 29.9662C73.2006 22.4871 68.9453 18.4123 64.432 18.4123ZM62.8846 36.1816C61.363 36.1816 60.4604 35.6401 59.8414 34.9695L59.8156 25.4014C60.4862 24.6535 61.4146 24.1377 62.8846 24.1377C65.2315 24.1377 66.8563 26.7683 66.8563 30.1468C66.8563 33.6026 65.2573 36.1816 62.8846 36.1816Z" fill="#868686"/>
<path fill-rule="evenodd" clip-rule="evenodd" d="M44.4962 16.8906L50.9695 15.498V10.2626L44.4962 11.6295V16.8906Z" fill="#868686"/>
<path d="M50.9695 18.8507H44.4962V41.417H50.9695V18.8507Z" fill="#868686"/>
<path fill-rule="evenodd" clip-rule="evenodd" d="M37.5584 20.7592L37.1458 18.8507H31.5751V41.417H38.0226V26.1235C39.5442 24.1377 42.1232 24.4987 42.9227 24.7824V18.8507C42.0975 18.5412 39.08 17.9738 37.5584 20.7592Z" fill="#868686"/>
<path fill-rule="evenodd" clip-rule="evenodd" d="M24.6636 13.2542L18.3708 14.5953L18.345 35.2531C18.345 39.07 21.2077 41.8812 25.0246 41.8812C27.1394 41.8812 28.6868 41.4943 29.5379 41.0301V35.7947C28.7126 36.13 24.6378 37.3163 24.6378 33.4994V24.3439H29.5379V18.8507H24.6378L24.6636 13.2542Z" fill="#868686"/>
<path fill-rule="evenodd" clip-rule="evenodd" d="M7.22978 25.4014C7.22978 24.3956 8.05506 24.0088 9.42193 24.0088C11.382 24.0088 13.8578 24.6019 15.8179 25.6593V19.5987C13.6773 18.7476 11.5625 18.4123 9.42193 18.4123C4.18655 18.4123 0.704895 21.1461 0.704895 25.7109C0.704895 32.829 10.5051 31.6942 10.5051 34.7632C10.5051 35.9496 9.47351 36.3364 8.02927 36.3364C5.88869 36.3364 3.15495 35.4595 0.988585 34.2732V40.4112C3.38706 41.4428 5.81132 41.8813 8.02927 41.8813C13.3936 41.8813 17.0816 39.2249 17.0816 34.6085C17.0558 26.923 7.22978 28.2899 7.22978 25.4014Z" fill="#868686"/>
</g>
<defs>
<clipPath id="clip0_179_14">
<rect width="93.657" height="56.1942" fill="white" transform="translate(0.704834)"/>
</clipPath>
</defs>
</svg>
